<?xml version="1.0" standalone="no"?>
<!DOCTYPE svg PUBLIC "-//W3C//DTD SVG 20010904//EN"
 "http://www.w3.org/TR/2001/REC-SVG-20010904/DTD/svg10.dtd">
<svg version="1.0" xmlns="http://www.w3.org/2000/svg"
 width="151.000000pt" height="151.000000pt" viewBox="0 0 151.000000 151.000000"
 preserveAspectRatio="xMidYMid meet">
<metadata>
Created by potrace 1.11, written by Peter Selinger 2001-2013
</metadata>
<g transform="translate(0.000000,151.000000) scale(0.100000,-0.100000)"
fill="#000000" stroke="none">
<path d="M0 755 l0 -755 755 0 755 0 0 755 0 755 -755 0 -755 0 0 -755z m138
478 l-48 -4 0 -470 0 -469 69 0 c58 0 70 3 74 18 3 13 4 12 3 -3 -1 -18 -9
-20 -78 -23 l-78 -3 0 481 0 480 53 -2 52 -2 -47 -3z m149 0 c-20 -2 -52 -2
-70 0 -17 2 0 4 38 4 39 0 53 -2 32 -4z m121 0 c-16 -2 -40 -2 -55 0 -16 2 -3
4 27 4 30 0 43 -2 28 -4z m170 -13 c13 -8 11 -9 -11 -4 -15 3 -51 10 -80 15
l-52 8 63 -4 c35 -3 71 -9 80 -15z m892 13 c-1 -12 -59 -119 -60 -110 0 4 11
30 25 57 21 42 23 50 9 50 -13 0 -75 -118 -209 -403 -10 -21 -19 -36 -21 -34
-2 2 13 39 34 83 21 43 69 143 107 222 59 122 72 142 92 142 13 0 23 -3 23 -7z
m-819 -49 c21 -14 45 -38 54 -53 l16 -26 -23 26 c-13 15 -41 39 -62 53 -21 14
-35 26 -30 26 4 0 25 -12 45 -26z m757 -81 c-2 -5 -31 -63 -63 -130 -32 -67
-60 -121 -62 -119 -4 4 118 256 124 256 2 0 3 -3 1 -7z m-865 -26 c43 -28 61
-64 61 -123 0 -43 -5 -58 -24 -80 -46 -48 -72 -55 -213 -57 l-132 -2 -3 143
-3 144 144 -4 c116 -2 148 -6 170 -21z m202 -27 c5 -36 1 -29 -16 25 -6 20 -6
26 1 19 5 -5 12 -25 15 -44z m6 -152 l-11 -33 5 34 c3 18 6 52 7 75 l1 41 4
-42 c2 -22 -1 -56 -6 -75z m-24 -75 c-21 -40 -68 -81 -120 -106 l-44 -22 64
-110 c77 -133 99 -173 85 -160 -10 10 -162 271 -162 278 0 2 17 9 38 15 48 15
115 72 132 112 7 17 15 29 17 26 2 -2 -2 -17 -10 -33z m539 -15 c-28 -67 -99
-208 -103 -205 -2 2 18 46 43 98 25 52 50 104 55 117 5 12 11 22 14 22 3 0 -1
-15 -9 -32z m-100 -124 c-25 -49 -45 -86 -45 -82 -1 11 83 178 87 174 2 -2
-17 -44 -42 -92z m-768 -9 c12 -9 39 -46 60 -83 68 -118 124 -222 118 -222 -2
0 -37 60 -77 132 -95 174 -100 178 -188 178 -46 0 -71 -4 -74 -12 -3 -8 -6 -6
-6 5 -1 15 9 17 72 17 49 0 80 -5 95 -15z m-161 -47 c-3 -8 -6 -5 -6 6 -1 11
2 17 5 13 3 -3 4 -12 1 -19z m0 -40 c-3 -8 -6 -5 -6 6 -1 11 2 17 5 13 3 -3 4
-12 1 -19z m824 -124 c-33 -65 -60 -116 -60 -112 -1 10 112 239 116 235 2 -2
-23 -58 -56 -123z m60 40 c-22 -44 -40 -76 -41 -72 0 11 73 158 78 154 2 -2
-15 -39 -37 -82z m-884 29 c-3 -10 -5 -4 -5 12 0 17 2 24 5 18 2 -7 2 -21 0
-30z m0 -60 c-3 -10 -5 -4 -5 12 0 17 2 24 5 18 2 -7 2 -21 0 -30z m0 -55 c-3
-7 -5 -2 -5 12 0 14 2 19 5 13 2 -7 2 -19 0 -25z m811 -71 c-26 -55 -36 -67
-56 -67 -20 0 -22 4 -17 23 4 12 12 27 17 32 5 6 5 -2 -1 -17 -9 -23 -8 -28 4
-28 9 0 29 28 47 65 17 36 32 64 34 62 2 -2 -11 -33 -28 -70z m-303 33 c9 -16
13 -30 11 -30 -3 0 -12 14 -21 30 -9 17 -13 30 -11 30 3 0 12 -13 21 -30z
m-508 -2 c-3 -8 -6 -5 -6 6 -1 11 2 17 5 13 3 -3 4 -12 1 -19z m373 -58 c12
-30 13 -30 91 -30 44 0 79 3 79 6 0 3 -5 14 -10 25 -6 10 -8 19 -6 19 3 0 12
-13 21 -30 l16 -30 -91 0 -90 0 -21 41 c-11 23 -16 38 -11 35 5 -3 15 -19 22
-36z"/>
<path d="M240 957 l0 -133 126 2 c148 3 188 17 217 77 37 74 -6 165 -84 181
-17 3 -83 6 -145 6 l-114 0 0 -133z"/>
</g>
</svg>
