<?xml version="1.0" standalone="no"?>
<!DOCTYPE svg PUBLIC "-//W3C//DTD SVG 20010904//EN"
 "http://www.w3.org/TR/2001/REC-SVG-20010904/DTD/svg10.dtd">
<svg version="1.0" xmlns="http://www.w3.org/2000/svg"
 width="151.000000pt" height="151.000000pt" viewBox="0 0 151.000000 151.000000"
 preserveAspectRatio="xMidYMid meet">
<metadata>
Created by potrace 1.11, written by Peter Selinger 2001-2013
</metadata>
<g transform="translate(0.000000,151.000000) scale(0.100000,-0.100000)"
fill="#000000" stroke="none">
<path d="M0 755 l0 -755 755 0 755 0 0 755 0 755 -755 0 -755 0 0 -755z m631
388 c26 -12 57 -32 69 -45 25 -27 60 -92 59 -110 0 -7 -9 6 -19 28 -26 58 -79
107 -136 126 -38 13 -88 16 -229 15 l-180 -2 -3 -402 -2 -403 61 0 60 0 -3
105 c-2 58 1 105 5 105 4 0 6 -48 5 -107 l-3 -108 -69 0 -69 0 0 385 c1 212 2
398 2 413 l1 28 203 -3 c180 -3 207 -6 248 -25z m749 18 c0 -6 -5 -13 -12 -17
-7 -4 -8 -3 -4 4 4 7 1 12 -7 12 -13 0 -57 -81 -121 -222 -14 -31 -31 -60 -37
-63 -6 -4 3 19 18 52 16 32 49 100 74 150 36 77 48 93 67 93 12 0 22 -4 22 -9z
m-27 -53 c-6 -7 -31 -58 -56 -113 -25 -55 -85 -181 -133 -280 -48 -99 -88
-182 -89 -185 -12 -35 -62 -130 -68 -130 -4 0 -1 12 7 28 34 66 257 532 302
631 19 41 37 71 41 68 3 -4 1 -12 -4 -19z m-789 -73 c46 -20 69 -56 69 -109 0
-54 -31 -101 -76 -115 -17 -5 -81 -9 -141 -8 l-109 2 -1 123 -1 122 111 0 c77
0 123 -5 148 -15z m206 -95 c0 -16 -4 -30 -9 -30 -5 0 -8 14 -7 30 0 17 4 30
8 30 5 0 8 -13 8 -30z m-12 -77 c-16 -59 -55 -108 -108 -137 -55 -30 -56 -32
-36 -61 13 -20 153 -261 175 -302 12 -23 11 -23 -68 -23 l-79 0 -17 38 c-10
20 -23 44 -30 52 -7 8 -34 56 -60 105 -74 142 -78 145 -163 146 -40 1 -70 4
-67 9 3 4 34 7 69 6 78 -2 98 -17 149 -115 39 -74 49 -92 96 -173 l33 -58 64
0 c35 0 64 2 64 5 0 2 -20 39 -45 81 -25 41 -45 77 -45 79 0 2 -22 41 -49 87
-52 88 -59 102 -51 104 3 1 24 11 47 22 53 28 100 85 108 134 4 21 10 38 15
38 5 0 4 -16 -2 -37z m418 -50 c-13 -27 -47 -95 -74 -153 -27 -58 -71 -149
-96 -204 -47 -97 -53 -134 -15 -86 l20 25 -12 -27 c-8 -19 -20 -28 -36 -28
-12 0 -23 2 -23 5 0 3 15 35 34 72 19 38 62 127 96 198 33 72 73 156 88 187
15 31 31 57 35 57 5 1 -3 -20 -17 -46z m-859 -180 c-3 -10 -5 -4 -5 12 0 17 2
24 5 18 2 -7 2 -21 0 -30z m0 -55 c-3 -7 -5 -2 -5 12 0 14 2 19 5 13 2 -7 2
-19 0 -25z"/>
<path d="M330 1032 c-6 -2 -10 -49 -10 -112 l0 -109 108 3 c145 6 172 18 192
85 11 40 -10 94 -46 118 -20 13 -50 17 -130 17 -57 1 -109 0 -114 -2z"/>
</g>
</svg>
